<?xml version="1.0" encoding="UTF-8" standalone="no"?>
<svg width="353px" height="452px" viewBox="0 0 353 452" version="1.1" xmlns="http://www.w3.org/2000/svg" xmlns:xlink="http://www.w3.org/1999/xlink">
    <!-- Generator: Sketch 42 (36781) - http://www.bohemiancoding.com/sketch -->
    <title>pattern 2</title>
    <desc>Created with Sketch.</desc>
    <defs>
        <path d="M1.18766958,-5.60923301e-14 L349.945312,-5.68434189e-14 L349.945312,450 L0.0235794966,450 C63.6598926,395.617871 104,314.769904 104,224.5 C104,134.781763 64.151448,54.3706549 1.18766958,-6.78568313e-13 L1.18766958,-5.60923301e-14 Z" id="path-1"></path>
    </defs>
    <g id="Page-1" stroke="none" stroke-width="1" fill="none" fill-rule="evenodd">
        <g id="pattern" transform="translate(2.000000, 1.000000)">
            <g id="Page-1">
                <g id="Group">
                    <g id="Combined-Shape" stroke="#979797" fill-rule="nonzero" fill="#EBE6D6">
                        <path d="M1.18766958,-5.96450434e-14 L349.945312,-6.03961322e-14 L349.945312,450 L0.0235794966,450 C63.6598926,395.617871 104,314.769904 104,224.5 C104,134.781763 64.151448,54.3706549 1.18766958,-6.82121026e-13 L1.18766958,-5.96450434e-14 Z" id="path-1"></path>
                    </g>
                    <g id="pattern-Clipped">
                        <mask id="mask-2" fill="white">
                            <use xlink:href="#path-1"></use>
                        </mask>
                        <g id="path-1"></g>
                        <g id="pattern" mask="url(#mask-2)">
                            <g transform="translate(-320.000000, 55.000000)" id="Group">
                                <g>
                                    <path d="M379.512971,72.0051586 C399.820219,71.5438666 418.418401,58.6064825 425.9481,39.7133949 L379.512971,39.7133949 L379.512971,72.0051586 Z" id="Fill-1" fill="#BD9C80" fill-rule="nonzero"></path>
                                    <path d="M438.142525,322.711647 C436.611128,317.79385 435.836812,312.689151 435.836812,307.53408 C435.836812,302.377684 436.611128,297.272985 438.142525,292.355188 L484.491471,292.355188 L484.491471,322.711647 L438.142525,322.711647 Z" id="Fill-7" fill="#BD9C80" fill-rule="nonzero"></path>
                                    <path d="M488.472439,178.115833 L534.907568,178.115833 C527.376544,159.226722 508.779687,146.286687 488.472439,145.825395 L488.472439,178.115833 Z" id="Fill-13" fill="#BD9C80" fill-rule="nonzero"></path>
                                    <path d="M379.512971,358.872696 L425.9481,358.872696 C418.418401,339.983585 399.820219,327.044875 379.512971,326.583583 L379.512971,358.872696 Z" id="Fill-17" fill="#BD9C80" fill-rule="nonzero"></path>
                                    <path d="M375.532003,395.13104 L329.096874,395.13104 C336.627899,376.241929 355.224755,363.301894 375.532003,362.840602 L375.532003,395.13104 Z" id="Fill-25" fill="#BD9C80" fill-rule="nonzero"></path>
                                    <polygon id="Fill-33" fill="#BD9C80" fill-rule="nonzero" points="488.472572 258.860354 531.130255 258.860354 488.472572 287.473712"></polygon>
                                    <path d="M493.620584,395.13104 L537.597523,365.634865 C538.948599,370.270319 539.635407,375.087374 539.635407,379.952148 C539.635407,385.107219 538.858439,390.211918 537.328368,395.13104 L493.620584,395.13104 Z" id="Fill-39" fill="#BD9C80" fill-rule="nonzero"></path>
                                    <path d="M384.661381,395.13104 L428.63832,365.634865 C429.989396,370.270319 430.674878,375.087374 430.674878,379.952148 C430.674878,385.107219 429.899236,390.211918 428.369165,395.13104 L384.661381,395.13104 Z" id="Fill-41" fill="#BD9C80" fill-rule="nonzero"></path>
                                    <path d="M556.234156,321.386095 C554.702759,316.468298 553.928442,311.363599 553.928442,306.208529 C553.928442,301.052133 554.702759,295.947433 556.234156,291.029637 L602.583102,291.029637 L602.583102,321.386095 L556.234156,321.386095 Z" id="Fill-47" fill="#BD9C80" fill-rule="nonzero"></path>
                                    <path d="M606.564468,357.547144 L652.99827,357.547144 C645.468572,338.658033 626.871715,325.719323 606.564468,325.258031 L606.564468,357.547144 Z" id="Fill-49" fill="#BD9C80" fill-rule="nonzero"></path>
                                    <path d="M602.582571,32.2907033 L556.147443,32.2907033 C563.678467,13.4015923 582.275324,0.461557085 602.582571,0.00026511033 L602.582571,32.2907033 Z" id="Fill-51" fill="#BD9C80" fill-rule="nonzero"></path>
                                    <path d="M602.582571,393.805489 L556.147443,393.805489 C563.678467,374.916378 582.275324,361.976342 602.582571,361.51505 L602.582571,393.805489 Z" id="Fill-59" fill="#BD9C80" fill-rule="nonzero"></path>
                                </g>
                            </g>
                        </g>
                    </g>
                </g>
            </g>
        </g>
    </g>
</svg>